<mxfile host="app.diagrams.net" modified="2022-05-24T17:48:25.581Z" agent="5.0 (X11)" etag="TVlUWEviipSF-tLSm1-O" version="18.0.6" type="github">
  <diagram id="f_M_BV4vzWHAYqFdbZKb" name="Page-1">
    <mxGraphModel dx="1669" dy="497" grid="1" gridSize="10" guides="1" tooltips="1" connect="1" arrows="1" fold="1" page="1" pageScale="1" pageWidth="850" pageHeight="1100" math="0" shadow="0">
      <root>
        <mxCell id="0" />
        <mxCell id="1" parent="0" />
        <mxCell id="i98yv0iWhbBMQ4a5bC5F-25" style="edgeStyle=orthogonalEdgeStyle;rounded=0;orthogonalLoop=1;jettySize=auto;html=1;exitX=0.625;exitY=1;exitDx=0;exitDy=0;entryX=0.5;entryY=0;entryDx=0;entryDy=0;fontSize=21;" edge="1" parent="1" source="i98yv0iWhbBMQ4a5bC5F-2" target="i98yv0iWhbBMQ4a5bC5F-12">
          <mxGeometry relative="1" as="geometry" />
        </mxCell>
        <mxCell id="i98yv0iWhbBMQ4a5bC5F-2" value="unzip_file 1" style="shape=hexagon;perimeter=hexagonPerimeter2;whiteSpace=wrap;html=1;fixedSize=1;fillColor=#71a4df;fontColor=#000000;strokeColor=#050505;strokeWidth=2;" vertex="1" parent="1">
          <mxGeometry x="289" y="146" width="130" height="40" as="geometry" />
        </mxCell>
        <mxCell id="i98yv0iWhbBMQ4a5bC5F-24" style="edgeStyle=orthogonalEdgeStyle;rounded=0;orthogonalLoop=1;jettySize=auto;html=1;exitX=0.5;exitY=1;exitDx=0;exitDy=0;entryX=0.375;entryY=0;entryDx=0;entryDy=0;fontSize=21;" edge="1" parent="1" source="i98yv0iWhbBMQ4a5bC5F-4">
          <mxGeometry relative="1" as="geometry">
            <mxPoint x="368.75" y="146" as="targetPoint" />
          </mxGeometry>
        </mxCell>
        <mxCell id="i98yv0iWhbBMQ4a5bC5F-4" value="Gziped input" style="swimlane;fontStyle=0;childLayout=stackLayout;horizontal=1;startSize=30;horizontalStack=0;resizeParent=1;resizeParentMax=0;resizeLast=0;collapsible=1;marginBottom=0;strokeColor=#050505;fillColor=#596E51;fontColor=#ffffff;strokeWidth=2;" vertex="1" parent="1">
          <mxGeometry x="292" y="36" width="150" height="90" as="geometry" />
        </mxCell>
        <mxCell id="i98yv0iWhbBMQ4a5bC5F-5" value="&lt;path&gt;/example_R1.fq.gz" style="text;strokeColor=#050505;fillColor=#6d8764;align=left;verticalAlign=middle;spacingLeft=4;spacingRight=4;overflow=hidden;points=[[0,0.5],[1,0.5]];portConstraint=eastwest;rotatable=0;fontColor=#ffffff;strokeWidth=2;" vertex="1" parent="i98yv0iWhbBMQ4a5bC5F-4">
          <mxGeometry y="30" width="150" height="30" as="geometry" />
        </mxCell>
        <mxCell id="i98yv0iWhbBMQ4a5bC5F-6" value="&lt;path&gt;/example_R1.fq.gz" style="text;strokeColor=#050505;fillColor=#6d8764;align=left;verticalAlign=middle;spacingLeft=4;spacingRight=4;overflow=hidden;points=[[0,0.5],[1,0.5]];portConstraint=eastwest;rotatable=0;fontColor=#ffffff;strokeWidth=2;" vertex="1" parent="i98yv0iWhbBMQ4a5bC5F-4">
          <mxGeometry y="60" width="150" height="30" as="geometry" />
        </mxCell>
        <mxCell id="i98yv0iWhbBMQ4a5bC5F-26" style="edgeStyle=orthogonalEdgeStyle;rounded=0;orthogonalLoop=1;jettySize=auto;html=1;exitX=0.5;exitY=1;exitDx=0;exitDy=0;entryX=0.625;entryY=0;entryDx=0;entryDy=0;fontSize=21;" edge="1" parent="1" source="i98yv0iWhbBMQ4a5bC5F-8" target="i98yv0iWhbBMQ4a5bC5F-22">
          <mxGeometry relative="1" as="geometry" />
        </mxCell>
        <mxCell id="i98yv0iWhbBMQ4a5bC5F-42" style="edgeStyle=orthogonalEdgeStyle;rounded=0;orthogonalLoop=1;jettySize=auto;html=1;exitX=0.5;exitY=1;exitDx=0;exitDy=0;entryX=0.5;entryY=0;entryDx=0;entryDy=0;fontSize=21;" edge="1" parent="1" source="i98yv0iWhbBMQ4a5bC5F-8" target="i98yv0iWhbBMQ4a5bC5F-21">
          <mxGeometry relative="1" as="geometry" />
        </mxCell>
        <mxCell id="i98yv0iWhbBMQ4a5bC5F-8" value="Not ziped input" style="swimlane;fontStyle=0;childLayout=stackLayout;horizontal=1;startSize=30;horizontalStack=0;resizeParent=1;resizeParentMax=0;resizeLast=0;collapsible=1;marginBottom=0;strokeColor=#050505;fillColor=#596E51;fontColor=#ffffff;strokeWidth=2;" vertex="1" parent="1">
          <mxGeometry x="266" y="228" width="140" height="90" as="geometry" />
        </mxCell>
        <mxCell id="i98yv0iWhbBMQ4a5bC5F-9" value="raw/example_R1.fq" style="text;strokeColor=#050505;fillColor=#6d8764;align=left;verticalAlign=middle;spacingLeft=4;spacingRight=4;overflow=hidden;points=[[0,0.5],[1,0.5]];portConstraint=eastwest;rotatable=0;fontColor=#ffffff;strokeWidth=2;" vertex="1" parent="i98yv0iWhbBMQ4a5bC5F-8">
          <mxGeometry y="30" width="140" height="30" as="geometry" />
        </mxCell>
        <mxCell id="i98yv0iWhbBMQ4a5bC5F-10" value="raw/example_R1.fq" style="text;strokeColor=#050505;fillColor=#6d8764;align=left;verticalAlign=middle;spacingLeft=4;spacingRight=4;overflow=hidden;points=[[0,0.5],[1,0.5]];portConstraint=eastwest;rotatable=0;fontColor=#ffffff;strokeWidth=2;" vertex="1" parent="i98yv0iWhbBMQ4a5bC5F-8">
          <mxGeometry y="60" width="140" height="30" as="geometry" />
        </mxCell>
        <mxCell id="i98yv0iWhbBMQ4a5bC5F-11" value="&lt;h1&gt;Raw Read Input&lt;/h1&gt;&lt;div&gt;The raw input can be zipped or not zipped, named or not named. If zipped, the data will be unzipped to a temporary folder. in this case there is only one input file and if a name in not provided in the config it will be named &#39;example&#39;.&lt;br&gt;&lt;/div&gt;" style="text;html=1;strokeColor=none;fillColor=none;spacing=5;spacingTop=-20;whiteSpace=wrap;overflow=hidden;rounded=0;" vertex="1" parent="1">
          <mxGeometry x="561" y="65" width="280" height="120" as="geometry" />
        </mxCell>
        <mxCell id="i98yv0iWhbBMQ4a5bC5F-27" style="edgeStyle=orthogonalEdgeStyle;rounded=0;orthogonalLoop=1;jettySize=auto;html=1;exitX=0.5;exitY=1;exitDx=0;exitDy=0;entryX=0.375;entryY=0;entryDx=0;entryDy=0;fontSize=21;" edge="1" parent="1" source="i98yv0iWhbBMQ4a5bC5F-12" target="i98yv0iWhbBMQ4a5bC5F-22">
          <mxGeometry relative="1" as="geometry" />
        </mxCell>
        <mxCell id="i98yv0iWhbBMQ4a5bC5F-43" style="edgeStyle=orthogonalEdgeStyle;rounded=0;orthogonalLoop=1;jettySize=auto;html=1;exitX=0.5;exitY=1;exitDx=0;exitDy=0;entryX=0.375;entryY=0;entryDx=0;entryDy=0;fontSize=21;" edge="1" parent="1" source="i98yv0iWhbBMQ4a5bC5F-12" target="i98yv0iWhbBMQ4a5bC5F-21">
          <mxGeometry relative="1" as="geometry" />
        </mxCell>
        <mxCell id="i98yv0iWhbBMQ4a5bC5F-12" value="Un-ziped data" style="swimlane;fontStyle=0;childLayout=stackLayout;horizontal=1;startSize=30;horizontalStack=0;resizeParent=1;resizeParentMax=0;resizeLast=0;collapsible=1;marginBottom=0;strokeColor=#050505;fillColor=#51606E;fontColor=#ffffff;strokeWidth=2;labelBackgroundColor=none;" vertex="1" parent="1">
          <mxGeometry x="107" y="228" width="140" height="90" as="geometry" />
        </mxCell>
        <mxCell id="i98yv0iWhbBMQ4a5bC5F-13" value="raw/example_R1.fq" style="text;strokeColor=#050505;fillColor=#647687;align=left;verticalAlign=middle;spacingLeft=4;spacingRight=4;overflow=hidden;points=[[0,0.5],[1,0.5]];portConstraint=eastwest;rotatable=0;fontColor=#ffffff;strokeWidth=2;dashed=1;" vertex="1" parent="i98yv0iWhbBMQ4a5bC5F-12">
          <mxGeometry y="30" width="140" height="30" as="geometry" />
        </mxCell>
        <mxCell id="i98yv0iWhbBMQ4a5bC5F-14" value="raw/example_R1.fq" style="text;strokeColor=#050505;fillColor=#647687;align=left;verticalAlign=middle;spacingLeft=4;spacingRight=4;overflow=hidden;points=[[0,0.5],[1,0.5]];portConstraint=eastwest;rotatable=0;fontColor=#ffffff;strokeWidth=2;dashed=1;" vertex="1" parent="i98yv0iWhbBMQ4a5bC5F-12">
          <mxGeometry y="60" width="140" height="30" as="geometry" />
        </mxCell>
        <mxCell id="i98yv0iWhbBMQ4a5bC5F-70" style="edgeStyle=orthogonalEdgeStyle;rounded=0;orthogonalLoop=1;jettySize=auto;html=1;exitX=0.5;exitY=1;exitDx=0;exitDy=0;entryX=0.5;entryY=0;entryDx=0;entryDy=0;fontSize=21;strokeWidth=2;" edge="1" parent="1" source="i98yv0iWhbBMQ4a5bC5F-18" target="i98yv0iWhbBMQ4a5bC5F-59">
          <mxGeometry relative="1" as="geometry" />
        </mxCell>
        <mxCell id="i98yv0iWhbBMQ4a5bC5F-18" value="unzip_file 2" style="shape=hexagon;perimeter=hexagonPerimeter2;whiteSpace=wrap;html=1;fixedSize=1;fillColor=#71a4df;fontColor=#000000;strokeColor=#1F1F1F;strokeWidth=2;" vertex="1" parent="1">
          <mxGeometry x="104.5" y="722" width="130" height="43" as="geometry" />
        </mxCell>
        <mxCell id="i98yv0iWhbBMQ4a5bC5F-39" style="edgeStyle=orthogonalEdgeStyle;rounded=0;orthogonalLoop=1;jettySize=auto;html=1;exitX=0.5;exitY=1;exitDx=0;exitDy=0;entryX=0.5;entryY=0;entryDx=0;entryDy=0;fontSize=21;" edge="1" parent="1" source="i98yv0iWhbBMQ4a5bC5F-20" target="i98yv0iWhbBMQ4a5bC5F-34">
          <mxGeometry relative="1" as="geometry" />
        </mxCell>
        <mxCell id="i98yv0iWhbBMQ4a5bC5F-20" value="rqcfilter2_filter_reads" style="shape=hexagon;perimeter=hexagonPerimeter2;whiteSpace=wrap;html=1;fixedSize=1;fillColor=#dc9d65;fontColor=#000000;strokeColor=#050505;strokeWidth=2;" vertex="1" parent="1">
          <mxGeometry x="72" y="505" width="210" height="43" as="geometry" />
        </mxCell>
        <mxCell id="i98yv0iWhbBMQ4a5bC5F-49" style="edgeStyle=orthogonalEdgeStyle;rounded=0;orthogonalLoop=1;jettySize=auto;html=1;exitX=0.5;exitY=1;exitDx=0;exitDy=0;entryX=0.5;entryY=0;entryDx=0;entryDy=0;fontSize=21;strokeWidth=2;" edge="1" parent="1" source="i98yv0iWhbBMQ4a5bC5F-21" target="i98yv0iWhbBMQ4a5bC5F-45">
          <mxGeometry relative="1" as="geometry" />
        </mxCell>
        <mxCell id="i98yv0iWhbBMQ4a5bC5F-21" value="check_dups_fasta" style="shape=hexagon;perimeter=hexagonPerimeter2;whiteSpace=wrap;html=1;fixedSize=1;fillColor=#efecb8;fontColor=#000000;strokeColor=#050505;strokeWidth=2;" vertex="1" parent="1">
          <mxGeometry x="414" y="360" width="130" height="43" as="geometry" />
        </mxCell>
        <mxCell id="i98yv0iWhbBMQ4a5bC5F-32" style="edgeStyle=orthogonalEdgeStyle;rounded=0;orthogonalLoop=1;jettySize=auto;html=1;exitX=0.5;exitY=1;exitDx=0;exitDy=0;entryX=0.5;entryY=0;entryDx=0;entryDy=0;fontSize=21;" edge="1" parent="1" source="i98yv0iWhbBMQ4a5bC5F-22" target="i98yv0iWhbBMQ4a5bC5F-28">
          <mxGeometry relative="1" as="geometry" />
        </mxCell>
        <mxCell id="i98yv0iWhbBMQ4a5bC5F-22" value="bbduk_trim_reads" style="shape=hexagon;perimeter=hexagonPerimeter2;whiteSpace=wrap;html=1;fixedSize=1;fillColor=#8ce5d5;fontColor=#000000;strokeColor=#050505;strokeWidth=2;" vertex="1" parent="1">
          <mxGeometry x="90" y="360" width="171" height="43" as="geometry" />
        </mxCell>
        <mxCell id="i98yv0iWhbBMQ4a5bC5F-23" value="Temp Output" style="text;strokeColor=#050505;fillColor=#647687;align=left;verticalAlign=middle;spacingLeft=4;spacingRight=4;overflow=hidden;points=[[0,0.5],[1,0.5]];portConstraint=eastwest;rotatable=0;fontColor=#ffffff;strokeWidth=2;dashed=1;" vertex="1" parent="1">
          <mxGeometry x="41" y="144" width="119" height="30" as="geometry" />
        </mxCell>
        <mxCell id="i98yv0iWhbBMQ4a5bC5F-33" style="edgeStyle=orthogonalEdgeStyle;rounded=0;orthogonalLoop=1;jettySize=auto;html=1;exitX=0.5;exitY=1;exitDx=0;exitDy=0;entryX=0.5;entryY=0;entryDx=0;entryDy=0;fontSize=21;" edge="1" parent="1" source="i98yv0iWhbBMQ4a5bC5F-28" target="i98yv0iWhbBMQ4a5bC5F-20">
          <mxGeometry relative="1" as="geometry" />
        </mxCell>
        <mxCell id="i98yv0iWhbBMQ4a5bC5F-28" value="bbduk Output" style="swimlane;fontStyle=0;childLayout=stackLayout;horizontal=1;startSize=30;horizontalStack=0;resizeParent=1;resizeParentMax=0;resizeLast=0;collapsible=1;marginBottom=0;strokeColor=#050505;fillColor=#51606E;fontColor=#ffffff;strokeWidth=2;labelBackgroundColor=none;direction=east;" vertex="1" parent="1">
          <mxGeometry x="70.5" y="420" width="210" height="60" as="geometry" />
        </mxCell>
        <mxCell id="i98yv0iWhbBMQ4a5bC5F-30" value="trimmed_reads/example/" style="text;strokeColor=#050505;fillColor=#647687;align=left;verticalAlign=middle;spacingLeft=4;spacingRight=4;overflow=hidden;points=[[0,0.5],[1,0.5]];portConstraint=eastwest;rotatable=0;fontColor=#ffffff;strokeWidth=2;dashed=1;" vertex="1" parent="i98yv0iWhbBMQ4a5bC5F-28">
          <mxGeometry y="30" width="210" height="30" as="geometry" />
        </mxCell>
        <mxCell id="i98yv0iWhbBMQ4a5bC5F-40" style="edgeStyle=orthogonalEdgeStyle;rounded=0;orthogonalLoop=1;jettySize=auto;html=1;exitX=0.5;exitY=1;exitDx=0;exitDy=0;entryX=0.5;entryY=0;entryDx=0;entryDy=0;fontSize=21;" edge="1" parent="1" target="i98yv0iWhbBMQ4a5bC5F-18">
          <mxGeometry relative="1" as="geometry">
            <mxPoint x="114" y="701.0000000000002" as="sourcePoint" />
          </mxGeometry>
        </mxCell>
        <mxCell id="i98yv0iWhbBMQ4a5bC5F-34" value="Filtered Folder from rqcfilter2" style="swimlane;fontStyle=0;childLayout=stackLayout;horizontal=1;startSize=30;horizontalStack=0;resizeParent=1;resizeParentMax=0;resizeLast=0;collapsible=1;marginBottom=0;strokeColor=#050505;fillColor=#51606E;fontColor=#ffffff;strokeWidth=2;labelBackgroundColor=none;" vertex="1" parent="1">
          <mxGeometry x="-4" y="570" width="380" height="130" as="geometry" />
        </mxCell>
        <mxCell id="i98yv0iWhbBMQ4a5bC5F-35" value="filtered_trimed_reads/example/..    " style="text;strokeColor=#050505;fillColor=#647687;align=left;verticalAlign=middle;spacingLeft=4;spacingRight=4;overflow=hidden;points=[[0,0.5],[1,0.5]];portConstraint=eastwest;rotatable=0;fontColor=#ffffff;strokeWidth=2;dashed=1;" vertex="1" parent="i98yv0iWhbBMQ4a5bC5F-34">
          <mxGeometry y="30" width="380" height="30" as="geometry" />
        </mxCell>
        <mxCell id="i98yv0iWhbBMQ4a5bC5F-37" value="filtered_trimed_reads/example/RNA.fq.gz" style="text;strokeColor=#050505;fillColor=#647687;align=left;verticalAlign=middle;spacingLeft=4;spacingRight=4;overflow=hidden;points=[[0,0.5],[1,0.5]];portConstraint=eastwest;rotatable=0;fontColor=#ffffff;strokeWidth=2;dashed=1;" vertex="1" parent="i98yv0iWhbBMQ4a5bC5F-34">
          <mxGeometry y="60" width="380" height="40" as="geometry" />
        </mxCell>
        <mxCell id="i98yv0iWhbBMQ4a5bC5F-38" value="filtered_trimed_reads/example/trimmed_R1.anqrpht.fastq.gz" style="text;strokeColor=#050505;fillColor=#647687;align=left;verticalAlign=middle;spacingLeft=4;spacingRight=4;overflow=hidden;points=[[0,0.5],[1,0.5]];portConstraint=eastwest;rotatable=0;fontColor=#ffffff;strokeWidth=2;dashed=1;" vertex="1" parent="i98yv0iWhbBMQ4a5bC5F-34">
          <mxGeometry y="100" width="380" height="30" as="geometry" />
        </mxCell>
        <mxCell id="i98yv0iWhbBMQ4a5bC5F-45" value="List of duplicates, or all clear" style="swimlane;fontStyle=0;childLayout=stackLayout;horizontal=1;startSize=30;horizontalStack=0;resizeParent=1;resizeParentMax=0;resizeLast=0;collapsible=1;marginBottom=0;strokeColor=#1F1F1F;fillColor=#BF6021;fontColor=#F5F5F5;strokeWidth=2;labelBackgroundColor=none;" vertex="1" parent="1">
          <mxGeometry x="374" y="450" width="210" height="60" as="geometry" />
        </mxCell>
        <mxCell id="i98yv0iWhbBMQ4a5bC5F-46" value="duplicate_names_note.txt" style="text;strokeColor=#050505;fillColor=#E38010;align=left;verticalAlign=middle;spacingLeft=4;spacingRight=4;overflow=hidden;points=[[0,0.5],[1,0.5]];portConstraint=eastwest;rotatable=0;fontColor=#FFFFFF;strokeWidth=2;" vertex="1" parent="i98yv0iWhbBMQ4a5bC5F-45">
          <mxGeometry y="30" width="210" height="30" as="geometry" />
        </mxCell>
        <mxCell id="i98yv0iWhbBMQ4a5bC5F-51" value="&lt;h1&gt;Check for Duplicate&lt;br&gt;&lt;/h1&gt;&lt;div&gt;Before the program is allowed to run for too long, the fasta files are checked for duplicates. &lt;br&gt;&lt;/div&gt;This could be moved to a logs&#39; directory." style="text;html=1;strokeColor=none;fillColor=none;spacing=5;spacingTop=-20;whiteSpace=wrap;overflow=hidden;rounded=0;" vertex="1" parent="1">
          <mxGeometry x="560" y="332" width="284" height="120" as="geometry" />
        </mxCell>
        <mxCell id="i98yv0iWhbBMQ4a5bC5F-54" value="Key" style="text;html=1;strokeColor=none;fillColor=none;align=center;verticalAlign=middle;whiteSpace=wrap;rounded=0;labelBackgroundColor=none;fontSize=21;" vertex="1" parent="1">
          <mxGeometry x="62" y="28" width="60" height="30" as="geometry" />
        </mxCell>
        <mxCell id="i98yv0iWhbBMQ4a5bC5F-71" style="edgeStyle=orthogonalEdgeStyle;rounded=0;orthogonalLoop=1;jettySize=auto;html=1;exitX=0.5;exitY=1;exitDx=0;exitDy=0;entryX=0.5;entryY=0;entryDx=0;entryDy=0;fontSize=21;strokeWidth=2;" edge="1" parent="1" source="i98yv0iWhbBMQ4a5bC5F-59" target="i98yv0iWhbBMQ4a5bC5F-67">
          <mxGeometry relative="1" as="geometry" />
        </mxCell>
        <mxCell id="i98yv0iWhbBMQ4a5bC5F-59" value="deinterleave_fastq" style="shape=hexagon;perimeter=hexagonPerimeter2;whiteSpace=wrap;html=1;fixedSize=1;fillColor=#9ce077;fontColor=#000000;strokeColor=#1F1F1F;strokeWidth=2;" vertex="1" parent="1">
          <mxGeometry x="84" y="783" width="162" height="43" as="geometry" />
        </mxCell>
        <mxCell id="i98yv0iWhbBMQ4a5bC5F-123" style="edgeStyle=orthogonalEdgeStyle;rounded=0;orthogonalLoop=1;jettySize=auto;html=1;exitX=0.5;exitY=1;exitDx=0;exitDy=0;entryX=0.296;entryY=-0.016;entryDx=0;entryDy=0;entryPerimeter=0;fontSize=21;fontColor=#FFFFFF;strokeWidth=2;" edge="1" parent="1" source="i98yv0iWhbBMQ4a5bC5F-67" target="i98yv0iWhbBMQ4a5bC5F-73">
          <mxGeometry relative="1" as="geometry" />
        </mxCell>
        <mxCell id="i98yv0iWhbBMQ4a5bC5F-125" style="edgeStyle=orthogonalEdgeStyle;rounded=0;orthogonalLoop=1;jettySize=auto;html=1;exitX=0.25;exitY=1;exitDx=0;exitDy=0;entryX=0.625;entryY=0;entryDx=0;entryDy=0;fontSize=21;fontColor=#FFFFFF;strokeWidth=2;" edge="1" parent="1" source="i98yv0iWhbBMQ4a5bC5F-67" target="i98yv0iWhbBMQ4a5bC5F-80">
          <mxGeometry relative="1" as="geometry" />
        </mxCell>
        <mxCell id="i98yv0iWhbBMQ4a5bC5F-67" value="Unziped and De-interleaved" style="swimlane;fontStyle=0;childLayout=stackLayout;horizontal=1;startSize=30;horizontalStack=0;resizeParent=1;resizeParentMax=0;resizeLast=0;collapsible=1;marginBottom=0;strokeColor=#050505;fillColor=#51606E;fontColor=#ffffff;strokeWidth=2;labelBackgroundColor=none;" vertex="1" parent="1">
          <mxGeometry x="59.5" y="855" width="210" height="90" as="geometry" />
        </mxCell>
        <mxCell id="i98yv0iWhbBMQ4a5bC5F-68" value="exampel_bined_R1.fastq" style="text;strokeColor=#050505;fillColor=#647687;align=left;verticalAlign=middle;spacingLeft=4;spacingRight=4;overflow=hidden;points=[[0,0.5],[1,0.5]];portConstraint=eastwest;rotatable=0;fontColor=#ffffff;strokeWidth=2;dashed=1;" vertex="1" parent="i98yv0iWhbBMQ4a5bC5F-67">
          <mxGeometry y="30" width="210" height="30" as="geometry" />
        </mxCell>
        <mxCell id="i98yv0iWhbBMQ4a5bC5F-69" value="exampel_bined_R2.fastq" style="text;strokeColor=#050505;fillColor=#647687;align=left;verticalAlign=middle;spacingLeft=4;spacingRight=4;overflow=hidden;points=[[0,0.5],[1,0.5]];portConstraint=eastwest;rotatable=0;fontColor=#ffffff;strokeWidth=2;dashed=1;" vertex="1" parent="i98yv0iWhbBMQ4a5bC5F-67">
          <mxGeometry y="60" width="210" height="30" as="geometry" />
        </mxCell>
        <mxCell id="i98yv0iWhbBMQ4a5bC5F-116" style="edgeStyle=orthogonalEdgeStyle;rounded=0;orthogonalLoop=1;jettySize=auto;html=1;exitX=0.5;exitY=1;exitDx=0;exitDy=0;entryX=0.5;entryY=0;entryDx=0;entryDy=0;fontSize=21;fontColor=#FFFFFF;strokeWidth=2;" edge="1" parent="1" source="i98yv0iWhbBMQ4a5bC5F-72" target="i98yv0iWhbBMQ4a5bC5F-113">
          <mxGeometry relative="1" as="geometry" />
        </mxCell>
        <mxCell id="i98yv0iWhbBMQ4a5bC5F-72" value="bowtie2_build_database" style="shape=hexagon;perimeter=hexagonPerimeter2;whiteSpace=wrap;html=1;fixedSize=1;fillColor=#e4eeb4;fontColor=#000000;strokeColor=#1F1F1F;strokeWidth=2;" vertex="1" parent="1">
          <mxGeometry x="337" y="957" width="153" height="43" as="geometry" />
        </mxCell>
        <mxCell id="i98yv0iWhbBMQ4a5bC5F-122" style="edgeStyle=orthogonalEdgeStyle;rounded=0;orthogonalLoop=1;jettySize=auto;html=1;exitX=0.5;exitY=1;exitDx=0;exitDy=0;entryX=0.5;entryY=0;entryDx=0;entryDy=0;fontSize=21;fontColor=#FFFFFF;strokeWidth=2;" edge="1" parent="1" source="i98yv0iWhbBMQ4a5bC5F-73" target="i98yv0iWhbBMQ4a5bC5F-119">
          <mxGeometry relative="1" as="geometry" />
        </mxCell>
        <mxCell id="i98yv0iWhbBMQ4a5bC5F-73" value="bowtie2_map" style="shape=hexagon;perimeter=hexagonPerimeter2;whiteSpace=wrap;html=1;fixedSize=1;fillColor=#57d985;fontColor=#000000;strokeColor=#1F1F1F;strokeWidth=2;" vertex="1" parent="1">
          <mxGeometry x="135" y="1182" width="162" height="43" as="geometry" />
        </mxCell>
        <mxCell id="i98yv0iWhbBMQ4a5bC5F-127" style="edgeStyle=orthogonalEdgeStyle;rounded=0;orthogonalLoop=1;jettySize=auto;html=1;exitX=0.5;exitY=1;exitDx=0;exitDy=0;entryX=0.5;entryY=0;entryDx=0;entryDy=0;fontSize=21;fontColor=#FFFFFF;strokeWidth=2;" edge="1" parent="1" source="i98yv0iWhbBMQ4a5bC5F-74" target="i98yv0iWhbBMQ4a5bC5F-75">
          <mxGeometry relative="1" as="geometry" />
        </mxCell>
        <mxCell id="i98yv0iWhbBMQ4a5bC5F-74" value="reformat_sam" style="shape=hexagon;perimeter=hexagonPerimeter2;whiteSpace=wrap;html=1;fixedSize=1;fillColor=#57b2d9;fontColor=#000000;strokeColor=#1F1F1F;strokeWidth=2;" vertex="1" parent="1">
          <mxGeometry x="138" y="1337" width="162" height="43" as="geometry" />
        </mxCell>
        <mxCell id="i98yv0iWhbBMQ4a5bC5F-129" style="edgeStyle=orthogonalEdgeStyle;rounded=0;orthogonalLoop=1;jettySize=auto;html=1;exitX=0.5;exitY=1;exitDx=0;exitDy=0;entryX=0.5;entryY=0;entryDx=0;entryDy=0;fontSize=21;fontColor=#FFFFFF;strokeWidth=2;" edge="1" parent="1" source="i98yv0iWhbBMQ4a5bC5F-75" target="i98yv0iWhbBMQ4a5bC5F-77">
          <mxGeometry relative="1" as="geometry" />
        </mxCell>
        <mxCell id="i98yv0iWhbBMQ4a5bC5F-130" style="edgeStyle=orthogonalEdgeStyle;rounded=0;orthogonalLoop=1;jettySize=auto;html=1;exitX=1;exitY=0.5;exitDx=0;exitDy=0;entryX=0;entryY=0.5;entryDx=0;entryDy=0;fontSize=21;fontColor=#FFFFFF;strokeWidth=2;" edge="1" parent="1" source="i98yv0iWhbBMQ4a5bC5F-75" target="i98yv0iWhbBMQ4a5bC5F-76">
          <mxGeometry relative="1" as="geometry" />
        </mxCell>
        <mxCell id="i98yv0iWhbBMQ4a5bC5F-75" value="samtools_sam_sort" style="shape=hexagon;perimeter=hexagonPerimeter2;whiteSpace=wrap;html=1;fixedSize=1;fillColor=#57d1d9;fontColor=#000000;strokeColor=#1F1F1F;strokeWidth=2;" vertex="1" parent="1">
          <mxGeometry x="138.5" y="1401" width="162" height="43" as="geometry" />
        </mxCell>
        <mxCell id="i98yv0iWhbBMQ4a5bC5F-88" style="edgeStyle=orthogonalEdgeStyle;rounded=0;orthogonalLoop=1;jettySize=auto;html=1;exitX=0.5;exitY=1;exitDx=0;exitDy=0;entryX=0.5;entryY=0;entryDx=0;entryDy=0;fontSize=21;fontColor=#FFFFFF;strokeWidth=2;" edge="1" parent="1" source="i98yv0iWhbBMQ4a5bC5F-76" target="i98yv0iWhbBMQ4a5bC5F-78">
          <mxGeometry relative="1" as="geometry" />
        </mxCell>
        <mxCell id="i98yv0iWhbBMQ4a5bC5F-76" value="rich_script_sam_file" style="shape=hexagon;perimeter=hexagonPerimeter2;whiteSpace=wrap;html=1;fixedSize=1;fillColor=#5775d9;fontColor=#000000;strokeColor=#1F1F1F;strokeWidth=2;" vertex="1" parent="1">
          <mxGeometry x="340" y="1402" width="162" height="43" as="geometry" />
        </mxCell>
        <mxCell id="i98yv0iWhbBMQ4a5bC5F-134" style="edgeStyle=orthogonalEdgeStyle;rounded=0;orthogonalLoop=1;jettySize=auto;html=1;exitX=0.5;exitY=1;exitDx=0;exitDy=0;fontSize=21;fontColor=#FFFFFF;strokeWidth=2;" edge="1" parent="1" source="i98yv0iWhbBMQ4a5bC5F-77" target="i98yv0iWhbBMQ4a5bC5F-131">
          <mxGeometry relative="1" as="geometry" />
        </mxCell>
        <mxCell id="i98yv0iWhbBMQ4a5bC5F-77" value="samtools_sam_to_bam" style="shape=hexagon;perimeter=hexagonPerimeter2;whiteSpace=wrap;html=1;fixedSize=1;fillColor=#d9b257;fontColor=#000000;strokeColor=#1F1F1F;strokeWidth=2;" vertex="1" parent="1">
          <mxGeometry x="70.5" y="1533" width="162" height="43" as="geometry" />
        </mxCell>
        <mxCell id="i98yv0iWhbBMQ4a5bC5F-89" style="edgeStyle=orthogonalEdgeStyle;rounded=0;orthogonalLoop=1;jettySize=auto;html=1;exitX=0.5;exitY=1;exitDx=0;exitDy=0;entryX=0.5;entryY=0;entryDx=0;entryDy=0;fontSize=21;fontColor=#FFFFFF;strokeWidth=2;" edge="1" parent="1" source="i98yv0iWhbBMQ4a5bC5F-78" target="i98yv0iWhbBMQ4a5bC5F-79">
          <mxGeometry relative="1" as="geometry" />
        </mxCell>
        <mxCell id="i98yv0iWhbBMQ4a5bC5F-78" value="counting" style="shape=hexagon;perimeter=hexagonPerimeter2;whiteSpace=wrap;html=1;fixedSize=1;fillColor=#d97557;fontColor=#000000;strokeColor=#1F1F1F;strokeWidth=2;" vertex="1" parent="1">
          <mxGeometry x="340" y="1472" width="162" height="43" as="geometry" />
        </mxCell>
        <mxCell id="i98yv0iWhbBMQ4a5bC5F-138" style="edgeStyle=orthogonalEdgeStyle;rounded=0;orthogonalLoop=1;jettySize=auto;html=1;exitX=0.5;exitY=1;exitDx=0;exitDy=0;entryX=0.5;entryY=0;entryDx=0;entryDy=0;fontSize=21;fontColor=#FFFFFF;strokeWidth=2;" edge="1" parent="1" source="i98yv0iWhbBMQ4a5bC5F-79" target="i98yv0iWhbBMQ4a5bC5F-136">
          <mxGeometry relative="1" as="geometry" />
        </mxCell>
        <mxCell id="i98yv0iWhbBMQ4a5bC5F-79" value="join_counting" style="shape=hexagon;perimeter=hexagonPerimeter2;whiteSpace=wrap;html=1;fixedSize=1;fillColor=#adeba5;fontColor=#000000;strokeColor=#1F1F1F;strokeWidth=2;" vertex="1" parent="1">
          <mxGeometry x="340" y="1535" width="162" height="43" as="geometry" />
        </mxCell>
        <mxCell id="i98yv0iWhbBMQ4a5bC5F-92" style="edgeStyle=orthogonalEdgeStyle;rounded=0;orthogonalLoop=1;jettySize=auto;html=1;exitX=0.5;exitY=1;exitDx=0;exitDy=0;fontSize=21;fontColor=#FFFFFF;strokeWidth=2;entryX=0.5;entryY=0;entryDx=0;entryDy=0;" edge="1" parent="1" source="i98yv0iWhbBMQ4a5bC5F-80" target="i98yv0iWhbBMQ4a5bC5F-98">
          <mxGeometry relative="1" as="geometry">
            <mxPoint x="9" y="1088" as="targetPoint" />
          </mxGeometry>
        </mxCell>
        <mxCell id="i98yv0iWhbBMQ4a5bC5F-80" value="fastqc_get_quality" style="shape=hexagon;perimeter=hexagonPerimeter2;whiteSpace=wrap;html=1;fixedSize=1;fillColor=#d95757;fontColor=#000000;strokeColor=#1F1F1F;strokeWidth=2;" vertex="1" parent="1">
          <mxGeometry x="-72" y="998" width="162" height="43" as="geometry" />
        </mxCell>
        <mxCell id="i98yv0iWhbBMQ4a5bC5F-91" style="edgeStyle=orthogonalEdgeStyle;rounded=0;orthogonalLoop=1;jettySize=auto;html=1;exitX=0;exitY=0.5;exitDx=0;exitDy=0;entryX=0.375;entryY=0;entryDx=0;entryDy=0;fontSize=21;fontColor=#FFFFFF;strokeWidth=2;" edge="1" parent="1" source="i98yv0iWhbBMQ4a5bC5F-13" target="i98yv0iWhbBMQ4a5bC5F-80">
          <mxGeometry relative="1" as="geometry" />
        </mxCell>
        <mxCell id="i98yv0iWhbBMQ4a5bC5F-98" value="Quality stats" style="swimlane;fontStyle=0;childLayout=stackLayout;horizontal=1;startSize=30;horizontalStack=0;resizeParent=1;resizeParentMax=0;resizeLast=0;collapsible=1;marginBottom=0;strokeColor=#1F1F1F;fillColor=#BF6021;fontColor=#F5F5F5;strokeWidth=2;labelBackgroundColor=none;" vertex="1" parent="1">
          <mxGeometry x="-160" y="1080" width="280" height="90" as="geometry" />
        </mxCell>
        <mxCell id="i98yv0iWhbBMQ4a5bC5F-100" value="read_quality/example_raw/*zip" style="text;strokeColor=#050505;fillColor=#E38010;align=left;verticalAlign=middle;spacingLeft=4;spacingRight=4;overflow=hidden;points=[[0,0.5],[1,0.5]];portConstraint=eastwest;rotatable=0;fontColor=#FFFFFF;strokeWidth=2;" vertex="1" parent="i98yv0iWhbBMQ4a5bC5F-98">
          <mxGeometry y="30" width="280" height="30" as="geometry" />
        </mxCell>
        <mxCell id="i98yv0iWhbBMQ4a5bC5F-99" value="read_quality/example_filtered_trimed/*zip" style="text;strokeColor=#050505;fillColor=#E38010;align=left;verticalAlign=middle;spacingLeft=4;spacingRight=4;overflow=hidden;points=[[0,0.5],[1,0.5]];portConstraint=eastwest;rotatable=0;fontColor=#FFFFFF;strokeWidth=2;" vertex="1" parent="i98yv0iWhbBMQ4a5bC5F-98">
          <mxGeometry y="60" width="280" height="30" as="geometry" />
        </mxCell>
        <mxCell id="i98yv0iWhbBMQ4a5bC5F-108" style="edgeStyle=orthogonalEdgeStyle;rounded=0;orthogonalLoop=1;jettySize=auto;html=1;exitX=0;exitY=0.5;exitDx=0;exitDy=0;entryX=0.5;entryY=0;entryDx=0;entryDy=0;fontSize=21;fontColor=#FFFFFF;strokeWidth=2;" edge="1" parent="1" source="i98yv0iWhbBMQ4a5bC5F-102" target="i98yv0iWhbBMQ4a5bC5F-72">
          <mxGeometry relative="1" as="geometry" />
        </mxCell>
        <mxCell id="i98yv0iWhbBMQ4a5bC5F-102" value="Data For Bowtie DB" style="swimlane;fontStyle=0;childLayout=stackLayout;horizontal=1;startSize=35;horizontalStack=0;resizeParent=1;resizeParentMax=0;resizeLast=0;collapsible=1;marginBottom=0;strokeColor=#050505;fillColor=#596E51;fontColor=#ffffff;strokeWidth=2;" vertex="1" parent="1">
          <mxGeometry x="334" y="774" width="160" height="95" as="geometry" />
        </mxCell>
        <mxCell id="i98yv0iWhbBMQ4a5bC5F-103" value="&lt;path&gt;/fasta_db.fa" style="text;strokeColor=#050505;fillColor=#6d8764;align=left;verticalAlign=middle;spacingLeft=4;spacingRight=4;overflow=hidden;points=[[0,0.5],[1,0.5]];portConstraint=eastwest;rotatable=0;fontColor=#ffffff;strokeWidth=2;" vertex="1" parent="i98yv0iWhbBMQ4a5bC5F-102">
          <mxGeometry y="35" width="160" height="30" as="geometry" />
        </mxCell>
        <mxCell id="i98yv0iWhbBMQ4a5bC5F-104" value="&lt;path&gt;/genbank_db.gff" style="text;strokeColor=#050505;fillColor=#6d8764;align=left;verticalAlign=middle;spacingLeft=4;spacingRight=4;overflow=hidden;points=[[0,0.5],[1,0.5]];portConstraint=eastwest;rotatable=0;fontColor=#ffffff;strokeWidth=2;" vertex="1" parent="i98yv0iWhbBMQ4a5bC5F-102">
          <mxGeometry y="65" width="160" height="30" as="geometry" />
        </mxCell>
        <mxCell id="i98yv0iWhbBMQ4a5bC5F-109" style="edgeStyle=orthogonalEdgeStyle;rounded=0;orthogonalLoop=1;jettySize=auto;html=1;exitX=1;exitY=0.5;exitDx=0;exitDy=0;entryX=1;entryY=0.5;entryDx=0;entryDy=0;fontSize=21;fontColor=#FFFFFF;strokeWidth=2;" edge="1" parent="1" source="i98yv0iWhbBMQ4a5bC5F-104" target="i98yv0iWhbBMQ4a5bC5F-78">
          <mxGeometry relative="1" as="geometry">
            <Array as="points">
              <mxPoint x="540" y="854" />
              <mxPoint x="540" y="1494" />
            </Array>
          </mxGeometry>
        </mxCell>
        <mxCell id="i98yv0iWhbBMQ4a5bC5F-110" value=".gff" style="text;whiteSpace=wrap;html=1;fontSize=21;fontColor=#FFFFFF;" vertex="1" parent="1">
          <mxGeometry x="710" y="830" width="60" height="40" as="geometry" />
        </mxCell>
        <mxCell id="i98yv0iWhbBMQ4a5bC5F-111" value="&lt;h1&gt;The Bowtie DB&lt;br&gt;&lt;/h1&gt;In theory, the Bowtie DB needs only to be made once for any given project. The config file will define not only the location for the FASTA and GFF file, but also a stable location for the Bowtie database for future use." style="text;html=1;strokeColor=none;fillColor=none;spacing=5;spacingTop=-20;whiteSpace=wrap;overflow=hidden;rounded=0;" vertex="1" parent="1">
          <mxGeometry x="557" y="760" width="284" height="160" as="geometry" />
        </mxCell>
        <mxCell id="i98yv0iWhbBMQ4a5bC5F-117" style="edgeStyle=orthogonalEdgeStyle;rounded=0;orthogonalLoop=1;jettySize=auto;html=1;exitX=0.5;exitY=1;exitDx=0;exitDy=0;entryX=0.5;entryY=0;entryDx=0;entryDy=0;fontSize=21;fontColor=#FFFFFF;strokeWidth=2;" edge="1" parent="1" source="i98yv0iWhbBMQ4a5bC5F-113" target="i98yv0iWhbBMQ4a5bC5F-73">
          <mxGeometry relative="1" as="geometry" />
        </mxCell>
        <mxCell id="i98yv0iWhbBMQ4a5bC5F-113" value="Bowtie Database" style="swimlane;fontStyle=0;childLayout=stackLayout;horizontal=1;startSize=30;horizontalStack=0;resizeParent=1;resizeParentMax=0;resizeLast=0;collapsible=1;marginBottom=0;strokeColor=#1F1F1F;fillColor=#BF6021;fontColor=#F5F5F5;strokeWidth=2;labelBackgroundColor=none;" vertex="1" parent="1">
          <mxGeometry x="252" y="1054" width="277" height="60" as="geometry" />
        </mxCell>
        <mxCell id="i98yv0iWhbBMQ4a5bC5F-114" value="&lt;Bowtie Directory Path&gt;/&lt;Unique name&gt;" style="text;strokeColor=#050505;fillColor=#E38010;align=left;verticalAlign=middle;spacingLeft=4;spacingRight=4;overflow=hidden;points=[[0,0.5],[1,0.5]];portConstraint=eastwest;rotatable=0;fontColor=#FFFFFF;strokeWidth=2;" vertex="1" parent="i98yv0iWhbBMQ4a5bC5F-113">
          <mxGeometry y="30" width="277" height="30" as="geometry" />
        </mxCell>
        <mxCell id="i98yv0iWhbBMQ4a5bC5F-126" style="edgeStyle=orthogonalEdgeStyle;rounded=0;orthogonalLoop=1;jettySize=auto;html=1;exitX=0.5;exitY=1;exitDx=0;exitDy=0;entryX=0.5;entryY=0;entryDx=0;entryDy=0;fontSize=21;fontColor=#FFFFFF;strokeWidth=2;" edge="1" parent="1" source="i98yv0iWhbBMQ4a5bC5F-119" target="i98yv0iWhbBMQ4a5bC5F-74">
          <mxGeometry relative="1" as="geometry" />
        </mxCell>
        <mxCell id="i98yv0iWhbBMQ4a5bC5F-119" value="Bowtie2 Results" style="swimlane;fontStyle=0;childLayout=stackLayout;horizontal=1;startSize=30;horizontalStack=0;resizeParent=1;resizeParentMax=0;resizeLast=0;collapsible=1;marginBottom=0;strokeColor=#050505;fillColor=#51606E;fontColor=#ffffff;strokeWidth=2;labelBackgroundColor=none;" vertex="1" parent="1">
          <mxGeometry x="111" y="1250" width="210" height="60" as="geometry" />
        </mxCell>
        <mxCell id="i98yv0iWhbBMQ4a5bC5F-120" value="results/bowtie2/example.sam" style="text;strokeColor=#050505;fillColor=#647687;align=left;verticalAlign=middle;spacingLeft=4;spacingRight=4;overflow=hidden;points=[[0,0.5],[1,0.5]];portConstraint=eastwest;rotatable=0;fontColor=#ffffff;strokeWidth=2;dashed=1;" vertex="1" parent="i98yv0iWhbBMQ4a5bC5F-119">
          <mxGeometry y="30" width="210" height="30" as="geometry" />
        </mxCell>
        <mxCell id="i98yv0iWhbBMQ4a5bC5F-131" value="Bam for each Input" style="swimlane;fontStyle=0;childLayout=stackLayout;horizontal=1;startSize=30;horizontalStack=0;resizeParent=1;resizeParentMax=0;resizeLast=0;collapsible=1;marginBottom=0;strokeColor=#1F1F1F;fillColor=#BF6021;fontColor=#F5F5F5;strokeWidth=2;labelBackgroundColor=none;" vertex="1" parent="1">
          <mxGeometry x="75.5" y="1608" width="150" height="60" as="geometry" />
        </mxCell>
        <mxCell id="i98yv0iWhbBMQ4a5bC5F-132" value="example.bam" style="text;strokeColor=#050505;fillColor=#E38010;align=left;verticalAlign=middle;spacingLeft=4;spacingRight=4;overflow=hidden;points=[[0,0.5],[1,0.5]];portConstraint=eastwest;rotatable=0;fontColor=#FFFFFF;strokeWidth=2;" vertex="1" parent="i98yv0iWhbBMQ4a5bC5F-131">
          <mxGeometry y="30" width="150" height="30" as="geometry" />
        </mxCell>
        <mxCell id="i98yv0iWhbBMQ4a5bC5F-135" value="&lt;h1&gt;Counting&lt;br&gt;&lt;/h1&gt;The counting script is based off of Riches script and htseqs_counts as such it needs a sam file for now, that is fine for the time being, but I should come back to this latter." style="text;html=1;strokeColor=none;fillColor=none;spacing=5;spacingTop=-20;whiteSpace=wrap;overflow=hidden;rounded=0;" vertex="1" parent="1">
          <mxGeometry x="559" y="1425" width="284" height="120" as="geometry" />
        </mxCell>
        <mxCell id="i98yv0iWhbBMQ4a5bC5F-136" value="Counts for all inputs" style="swimlane;fontStyle=0;childLayout=stackLayout;horizontal=1;startSize=30;horizontalStack=0;resizeParent=1;resizeParentMax=0;resizeLast=0;collapsible=1;marginBottom=0;strokeColor=#1F1F1F;fillColor=#BF6021;fontColor=#F5F5F5;strokeWidth=2;labelBackgroundColor=none;" vertex="1" parent="1">
          <mxGeometry x="360" y="1610" width="140" height="60" as="geometry" />
        </mxCell>
        <mxCell id="i98yv0iWhbBMQ4a5bC5F-137" value="all_counts.tsv" style="text;strokeColor=#050505;fillColor=#E38010;align=left;verticalAlign=middle;spacingLeft=4;spacingRight=4;overflow=hidden;points=[[0,0.5],[1,0.5]];portConstraint=eastwest;rotatable=0;fontColor=#FFFFFF;strokeWidth=2;" vertex="1" parent="i98yv0iWhbBMQ4a5bC5F-136">
          <mxGeometry y="30" width="140" height="30" as="geometry" />
        </mxCell>
        <mxCell id="i98yv0iWhbBMQ4a5bC5F-140" value="All Output File At the end" style="swimlane;fontStyle=0;childLayout=stackLayout;horizontal=1;startSize=30;horizontalStack=0;resizeParent=1;resizeParentMax=0;resizeLast=0;collapsible=1;marginBottom=0;strokeColor=#1F1F1F;fillColor=#BF6021;fontColor=#F5F5F5;strokeWidth=2;labelBackgroundColor=none;" vertex="1" parent="1">
          <mxGeometry x="142" y="1720" width="277" height="210" as="geometry" />
        </mxCell>
        <mxCell id="i98yv0iWhbBMQ4a5bC5F-143" value="read_quality/example_raw/.." style="text;strokeColor=#050505;fillColor=#E38010;align=left;verticalAlign=middle;spacingLeft=4;spacingRight=4;overflow=hidden;points=[[0,0.5],[1,0.5]];portConstraint=eastwest;rotatable=0;fontColor=#FFFFFF;strokeWidth=2;" vertex="1" parent="i98yv0iWhbBMQ4a5bC5F-140">
          <mxGeometry y="30" width="277" height="30" as="geometry" />
        </mxCell>
        <mxCell id="i98yv0iWhbBMQ4a5bC5F-146" value="example.bam" style="text;strokeColor=#050505;fillColor=#E38010;align=left;verticalAlign=middle;spacingLeft=4;spacingRight=4;overflow=hidden;points=[[0,0.5],[1,0.5]];portConstraint=eastwest;rotatable=0;fontColor=#FFFFFF;strokeWidth=2;" vertex="1" parent="i98yv0iWhbBMQ4a5bC5F-140">
          <mxGeometry y="60" width="277" height="30" as="geometry" />
        </mxCell>
        <mxCell id="i98yv0iWhbBMQ4a5bC5F-148" value="all_counts.tsv" style="text;strokeColor=#050505;fillColor=#E38010;align=left;verticalAlign=middle;spacingLeft=4;spacingRight=4;overflow=hidden;points=[[0,0.5],[1,0.5]];portConstraint=eastwest;rotatable=0;fontColor=#FFFFFF;strokeWidth=2;" vertex="1" parent="i98yv0iWhbBMQ4a5bC5F-140">
          <mxGeometry y="90" width="277" height="30" as="geometry" />
        </mxCell>
        <mxCell id="i98yv0iWhbBMQ4a5bC5F-150" value="&lt;Bowtie Directory Path&gt;/&lt;Unique name&gt;" style="text;strokeColor=#050505;fillColor=#E38010;align=left;verticalAlign=middle;spacingLeft=4;spacingRight=4;overflow=hidden;points=[[0,0.5],[1,0.5]];portConstraint=eastwest;rotatable=0;fontColor=#FFFFFF;strokeWidth=2;" vertex="1" parent="i98yv0iWhbBMQ4a5bC5F-140">
          <mxGeometry y="120" width="277" height="30" as="geometry" />
        </mxCell>
        <mxCell id="i98yv0iWhbBMQ4a5bC5F-144" value="read_quality/example_filtered_trimed/.." style="text;strokeColor=#050505;fillColor=#E38010;align=left;verticalAlign=middle;spacingLeft=4;spacingRight=4;overflow=hidden;points=[[0,0.5],[1,0.5]];portConstraint=eastwest;rotatable=0;fontColor=#FFFFFF;strokeWidth=2;" vertex="1" parent="i98yv0iWhbBMQ4a5bC5F-140">
          <mxGeometry y="150" width="277" height="30" as="geometry" />
        </mxCell>
        <mxCell id="i98yv0iWhbBMQ4a5bC5F-141" value="&lt;Bowtie Directory Path&gt;/&lt;Unique name&gt;" style="text;strokeColor=#050505;fillColor=#E38010;align=left;verticalAlign=middle;spacingLeft=4;spacingRight=4;overflow=hidden;points=[[0,0.5],[1,0.5]];portConstraint=eastwest;rotatable=0;fontColor=#FFFFFF;strokeWidth=2;" vertex="1" parent="i98yv0iWhbBMQ4a5bC5F-140">
          <mxGeometry y="180" width="277" height="30" as="geometry" />
        </mxCell>
        <mxCell id="i98yv0iWhbBMQ4a5bC5F-151" value="&lt;h1&gt;Quality Info&lt;br&gt;&lt;/h1&gt;&lt;div&gt;&lt;br&gt;&lt;/div&gt;&lt;div&gt;Quality is calculated at 2 time points, once for the raw input, and once for the filterd and trimed files. Note that only the zip files are saved.&lt;br&gt;&lt;/div&gt;" style="text;html=1;strokeColor=none;fillColor=none;spacing=5;spacingTop=-20;whiteSpace=wrap;overflow=hidden;rounded=0;" vertex="1" parent="1">
          <mxGeometry x="562" y="990" width="283" height="160" as="geometry" />
        </mxCell>
        <mxCell id="i98yv0iWhbBMQ4a5bC5F-152" value="Retained Output" style="text;strokeColor=#050505;fillColor=#E38010;align=left;verticalAlign=middle;spacingLeft=4;spacingRight=4;overflow=hidden;points=[[0,0.5],[1,0.5]];portConstraint=eastwest;rotatable=0;fontColor=#FFFFFF;strokeWidth=2;" vertex="1" parent="1">
          <mxGeometry x="42" y="104" width="118" height="30" as="geometry" />
        </mxCell>
        <mxCell id="i98yv0iWhbBMQ4a5bC5F-153" value="&lt;h1&gt;Final Output&lt;br&gt;&lt;/h1&gt;The final output is also configurable in the config file, almost all outputs can be excluded if desired. If you only want counts you can remove bins for example. If you want something later, you can always generate only those file an be sure of reproducibility, as long as you don&#39;t otherwise alter the config file." style="text;html=1;strokeColor=none;fillColor=none;spacing=5;spacingTop=-20;whiteSpace=wrap;overflow=hidden;rounded=0;" vertex="1" parent="1">
          <mxGeometry x="559" y="1746" width="281" height="174" as="geometry" />
        </mxCell>
        <mxCell id="i98yv0iWhbBMQ4a5bC5F-154" value="User Input" style="text;strokeColor=#050505;fillColor=#6d8764;align=left;verticalAlign=middle;spacingLeft=4;spacingRight=4;overflow=hidden;points=[[0,0.5],[1,0.5]];portConstraint=eastwest;rotatable=0;fontColor=#ffffff;strokeWidth=2;" vertex="1" parent="1">
          <mxGeometry x="42" y="64" width="118" height="30" as="geometry" />
        </mxCell>
      </root>
    </mxGraphModel>
  </diagram>
</mxfile>
